<svg width="14" height="12" viewBox="0 0 14 12" fill="none" xmlns="http://www.w3.org/2000/svg">
<path fill-rule="evenodd" clip-rule="evenodd" d="M4.52748 2.68899C4.65969 1.5079 3.82235 0.441392 2.64126 0.30918C1.46016 0.168154 0.393651 1.01431 0.261439 2.1954C0.102784 3.54397 0.323137 5.15695 0.605189 6.81401C1.38965 7.05199 2.14766 7.39574 2.85279 7.80119C3.61081 6.01192 4.3512 4.24028 4.52748 2.68899ZM12.8216 7.8717C12.3544 6.77875 11.0852 6.28516 9.99224 6.75231C8.55554 7.37811 7.06595 8.60328 5.56755 9.8637C6.13165 10.419 6.6605 11.0448 7.11002 11.7235C8.81115 11.5119 10.4418 11.2563 11.7022 10.7099C12.7951 10.2251 13.2975 8.95584 12.8216 7.8717ZM9.19897 2.10726C8.24704 1.40213 6.89848 1.59604 6.19335 2.54797C5.11803 3.99349 4.39527 6.15295 3.61081 8.25953C3.87523 8.43581 4.12203 8.61209 4.36001 8.79719C4.53629 8.93821 4.72139 9.08805 4.90649 9.23789C6.70457 7.88052 8.57317 6.5584 9.64849 5.11288C10.3536 4.16095 10.1509 2.81239 9.19897 2.10726Z" fill="#53B175"/>
</svg>
